{
	"asset":{
		"generator":"Khronos glTF Blender I/O v4.2.60",
		"version":"2.0"
	},
	"extensionsUsed":[
		"KHR_materials_transmission",
		"KHR_materials_ior"
	],
	"scene":0,
	"scenes":[
		{
			"name":"Scene",
			"nodes":[
				0,
				1,
				2,
				3,
				4,
				5
			]
		}
	],
	"nodes":[
		{
			"name":"Empty",
			"rotation":[
				0.7071068286895752,
				0,
				0,
				0.7071068286895752
			],
			"translation":[
				0.005494823679327965,
				2.093644380569458,
				-2.257509469985962
			]
		},
		{
			"mesh":0,
			"name":"Cylinder",
			"rotation":[
				-0.13793082535266876,
				-0.46581748127937317,
				-0.0180208683013916,
				0.8738789558410645
			],
			"scale":[
				0.8157899975776672,
				0.8157899975776672,
				0.8157899975776672
			],
			"translation":[
				-0.10420096665620804,
				1.2080788612365723,
				-0.1489025354385376
			]
		},
		{
			"mesh":1,
			"name":"Cylinder.001",
			"rotation":[
				-0.13793082535266876,
				-0.46581748127937317,
				-0.0180208720266819,
				0.8738789558410645
			],
			"scale":[
				0.5218446850776672,
				0.5218446850776672,
				0.5596649050712585
			],
			"translation":[
				0.16936621069908142,
				2.814133882522583,
				-0.5140200257301331
			]
		},
		{
			"mesh":2,
			"name":"Cylinder.003",
			"rotation":[
				-0.13793085515499115,
				-0.46581757068634033,
				-0.0180208757519722,
				0.8738790154457092
			],
			"scale":[
				0.173853799700737,
				0.7289772033691406,
				0.18102361261844635
			],
			"translation":[
				-0.10420096665620804,
				1.2080788612365723,
				-0.1489025354385376
			]
		},
		{
			"mesh":3,
			"name":"Cylinder.002",
			"rotation":[
				-0.13793084025382996,
				-0.46581757068634033,
				-0.0180208757519722,
				0.8738790154457092
			],
			"scale":[
				0.6872631907463074,
				0.6872631907463074,
				0.6872632503509521
			],
			"translation":[
				-0.10420096665620804,
				1.2080788612365723,
				-0.1489025354385376
			]
		},
		{
			"mesh":4,
			"name":"Cylinder.004",
			"rotation":[
				-0.13793084025382996,
				-0.46581757068634033,
				-0.0180208757519722,
				0.8738790154457092
			],
			"scale":[
				0.6872631907463074,
				0.6872631907463074,
				0.6872632503509521
			],
			"translation":[
				-0.10420096665620804,
				1.2080788612365723,
				-0.1489025354385376
			]
		}
	],
	"materials":[
		{
			"doubleSided":true,
			"name":"Material"
		},
		{
			"doubleSided":true,
			"name":"Material.003",
			"pbrMetallicRoughness":{
				"baseColorFactor":[
					0.800000011920929,
					0.800000011920929,
					0.800000011920929,
					1
				],
				"metallicFactor":0,
				"roughnessFactor":0
			}
		},
		{
			"doubleSided":true,
			"name":"Material.004"
		},
		{
			"doubleSided":true,
			"name":"Material.005"
		},
		{
			"alphaMode":"BLEND",
			"doubleSided":true,
			"extensions":{
				"KHR_materials_transmission":{
					"transmissionFactor":1
				},
				"KHR_materials_ior":{
					"ior":3.450000047683716
				}
			},
			"name":"Material.006",
			"pbrMetallicRoughness":{
				"baseColorFactor":[
					0.8000156879425049,
					0.7619960308074951,
					0.47858142852783203,
					0.854544997215271
				],
				"metallicFactor":0,
				"roughnessFactor":0.08181799948215485
			}
		}
	],
	"meshes":[
		{
			"name":"Cylinder",
			"primitives":[
				{
					"attributes":{
						"POSITION":0,
						"NORMAL":1,
						"TEXCOORD_0":2
					},
					"indices":3,
					"material":0
				}
			]
		},
		{
			"name":"Cylinder.001",
			"primitives":[
				{
					"attributes":{
						"POSITION":4,
						"NORMAL":5,
						"TEXCOORD_0":6
					},
					"indices":7,
					"material":1
				}
			]
		},
		{
			"name":"Cylinder.003",
			"primitives":[
				{
					"attributes":{
						"POSITION":8,
						"NORMAL":9,
						"TEXCOORD_0":10
					},
					"indices":11,
					"material":2
				}
			]
		},
		{
			"name":"Cylinder.004",
			"primitives":[
				{
					"attributes":{
						"POSITION":12,
						"NORMAL":13,
						"TEXCOORD_0":14
					},
					"indices":3,
					"material":3
				}
			]
		},
		{
			"name":"Cylinder.005",
			"primitives":[
				{
					"attributes":{
						"POSITION":15,
						"NORMAL":16,
						"TEXCOORD_0":17
					},
					"indices":3,
					"material":4
				}
			]
		}
	],
	"accessors":[
		{
			"bufferView":0,
			"componentType":5126,
			"count":433,
			"max":[
				1,
				1.4675668478012085,
				1
			],
			"min":[
				-1,
				-1.4972221851348877,
				-1
			],
			"type":"VEC3"
		},
		{
			"bufferView":1,
			"componentType":5126,
			"count":433,
			"type":"VEC3"
		},
		{
			"bufferView":2,
			"componentType":5126,
			"count":433,
			"type":"VEC2"
		},
		{
			"bufferView":3,
			"componentType":5123,
			"count":2202,
			"type":"SCALAR"
		},
		{
			"bufferView":4,
			"componentType":5126,
			"count":3552,
			"max":[
				1,
				2.3458921909332275,
				1
			],
			"min":[
				-1,
				-0.9056103825569153,
				-1
			],
			"type":"VEC3"
		},
		{
			"bufferView":5,
			"componentType":5126,
			"count":3552,
			"type":"VEC3"
		},
		{
			"bufferView":6,
			"componentType":5126,
			"count":3552,
			"type":"VEC2"
		},
		{
			"bufferView":7,
			"componentType":5123,
			"count":6426,
			"type":"SCALAR"
		},
		{
			"bufferView":8,
			"componentType":5126,
			"count":849,
			"max":[
				0.6029972434043884,
				1.5937631130218506,
				0.605205774307251
			],
			"min":[
				-0.6029971837997437,
				-1.296828269958496,
				-0.605205774307251
			],
			"type":"VEC3"
		},
		{
			"bufferView":9,
			"componentType":5126,
			"count":849,
			"type":"VEC3"
		},
		{
			"bufferView":10,
			"componentType":5126,
			"count":849,
			"type":"VEC2"
		},
		{
			"bufferView":11,
			"componentType":5123,
			"count":4320,
			"type":"SCALAR"
		},
		{
			"bufferView":12,
			"componentType":5126,
			"count":433,
			"max":[
				1,
				1.2509554624557495,
				1
			],
			"min":[
				-1,
				-1.4972221851348877,
				-1
			],
			"type":"VEC3"
		},
		{
			"bufferView":13,
			"componentType":5126,
			"count":433,
			"type":"VEC3"
		},
		{
			"bufferView":14,
			"componentType":5126,
			"count":433,
			"type":"VEC2"
		},
		{
			"bufferView":15,
			"componentType":5126,
			"count":433,
			"max":[
				1,
				1.2509554624557495,
				1
			],
			"min":[
				-1,
				-1.4972221851348877,
				-1
			],
			"type":"VEC3"
		},
		{
			"bufferView":16,
			"componentType":5126,
			"count":433,
			"type":"VEC3"
		},
		{
			"bufferView":17,
			"componentType":5126,
			"count":433,
			"type":"VEC2"
		}
	],
	"bufferViews":[
		{
			"buffer":0,
			"byteLength":5196,
			"byteOffset":0,
			"target":34962
		},
		{
			"buffer":0,
			"byteLength":5196,
			"byteOffset":5196,
			"target":34962
		},
		{
			"buffer":0,
			"byteLength":3464,
			"byteOffset":10392,
			"target":34962
		},
		{
			"buffer":0,
			"byteLength":4404,
			"byteOffset":13856,
			"target":34963
		},
		{
			"buffer":0,
			"byteLength":42624,
			"byteOffset":18260,
			"target":34962
		},
		{
			"buffer":0,
			"byteLength":42624,
			"byteOffset":60884,
			"target":34962
		},
		{
			"buffer":0,
			"byteLength":28416,
			"byteOffset":103508,
			"target":34962
		},
		{
			"buffer":0,
			"byteLength":12852,
			"byteOffset":131924,
			"target":34963
		},
		{
			"buffer":0,
			"byteLength":10188,
			"byteOffset":144776,
			"target":34962
		},
		{
			"buffer":0,
			"byteLength":10188,
			"byteOffset":154964,
			"target":34962
		},
		{
			"buffer":0,
			"byteLength":6792,
			"byteOffset":165152,
			"target":34962
		},
		{
			"buffer":0,
			"byteLength":8640,
			"byteOffset":171944,
			"target":34963
		},
		{
			"buffer":0,
			"byteLength":5196,
			"byteOffset":180584,
			"target":34962
		},
		{
			"buffer":0,
			"byteLength":5196,
			"byteOffset":185780,
			"target":34962
		},
		{
			"buffer":0,
			"byteLength":3464,
			"byteOffset":190976,
			"target":34962
		},
		{
			"buffer":0,
			"byteLength":5196,
			"byteOffset":194440,
			"target":34962
		},
		{
			"buffer":0,
			"byteLength":5196,
			"byteOffset":199636,
			"target":34962
		},
		{
			"buffer":0,
			"byteLength":3464,
			"byteOffset":204832,
			"target":34962
		}
	],
	"buffers":[
		{
			"byteLength":208296,
			"uri":"skincare.bin"
		}
	]
}
